<?xml version="1.0" encoding="utf-8"?>
<!-- Generator: Adobe Illustrator 24.3.0, SVG Export Plug-In . SVG Version: 6.00 Build 0)  -->
<svg version="1.1" id="Layer_1" xmlns="http://www.w3.org/2000/svg" xmlns:xlink="http://www.w3.org/1999/xlink" x="0px" y="0px"
	 viewBox="0 0 320 90" style="enable-background:new 0 0 320 90;" xml:space="preserve">
<style type="text/css">
	.st0{fill:#FFFFFF;}
	.st1{clip-path:url(#SVGID_2_);}
	.st2{fill:#FB1807;}
	.st3{fill:#EC2F31;}
</style>
<path class="st0" d="M113.1,50.9l4.7-15.9h5.4L116,56.6h-5.4l-7-21.6h5.4l4.6,15.9H113.1z M129.5,38.7c-1,0-1.7-0.2-2.3-0.7
	c-0.5-0.5-0.8-1.2-0.8-2.1c0-0.9,0.3-1.6,0.8-2.1s1.3-0.8,2.3-0.8c0.9,0,1.7,0.3,2.2,0.8s0.8,1.2,0.8,2.1c0,0.9-0.3,1.6-0.8,2.1
	C131.2,38.4,130.5,38.7,129.5,38.7z M127,56.6v-16h5.2v16H127z M144.2,57.1c-1.5,0-2.9-0.2-4-0.6c-1.2-0.4-2.1-1-2.7-1.8
	c-0.6-0.8-1-1.8-1-3.1h4.7c0,0.6,0.2,0.9,0.6,1.2c0.4,0.2,1,0.3,1.7,0.3c0.4,0,0.8-0.1,1.1-0.2c0.3-0.1,0.5-0.2,0.6-0.4
	s0.2-0.4,0.2-0.6c0-0.3-0.1-0.5-0.3-0.6c-0.2-0.2-0.5-0.3-0.9-0.5l-3.9-1.5c-1.1-0.5-2-1.1-2.6-1.8s-0.9-1.6-0.9-2.6
	c0-1.4,0.7-2.5,2-3.4s3.1-1.3,5.3-1.3c2.1,0,3.7,0.5,4.9,1.5c1.1,1,1.7,2.2,1.7,3.8H146c0-0.3-0.1-0.6-0.4-0.9
	c-0.3-0.3-0.8-0.4-1.5-0.4c-0.6,0-1,0.1-1.3,0.3s-0.5,0.4-0.5,0.7c0,0.4,0.3,0.7,1,1l4.4,1.8c1.1,0.4,1.9,1,2.6,1.6
	c0.6,0.6,0.9,1.5,0.9,2.4s-0.3,1.7-0.9,2.5c-0.6,0.8-1.4,1.4-2.5,1.9S145.5,57.1,144.2,57.1z M163.3,57.1c-1.9,0-3.6-0.4-5-1.3
	c-1.4-0.8-2.5-2.1-3.4-3.8c-0.8-1.7-1.2-3.8-1.2-6.2c0-2.5,0.4-4.6,1.2-6.3s1.9-2.9,3.4-3.8c1.4-0.9,3.1-1.3,5-1.3
	c2.7,0,4.8,0.6,6.2,1.9c1.4,1.3,2.3,3,2.5,5l-5.5,1c-0.2-0.9-0.6-1.7-1.2-2.3c-0.5-0.6-1.2-0.9-2.1-0.9c-0.8,0-1.5,0.2-2.1,0.7
	S160,41,159.7,42s-0.5,2.2-0.5,3.7s0.2,2.7,0.5,3.7s0.8,1.7,1.4,2.2c0.6,0.5,1.3,0.7,2.1,0.7c1.1,0,1.9-0.3,2.5-0.9
	c0.5-0.6,0.8-1.3,0.8-2.1h5.4c0,1.7-0.3,3.1-1,4.2c-0.7,1.1-1.6,2-3,2.6C166.8,56.8,165.2,57.1,163.3,57.1z M183,57.1
	c-1.5,0-2.8-0.3-4.1-0.9c-1.2-0.6-2.2-1.5-3-2.8c-0.7-1.2-1.1-2.8-1.1-4.7c0-2,0.4-3.6,1.1-4.8c0.7-1.2,1.7-2.2,3-2.8
	c1.2-0.6,2.6-0.9,4.1-0.9c1.4,0,2.8,0.3,4,0.9c1.2,0.6,2.2,1.5,2.9,2.8c0.7,1.2,1.1,2.9,1.1,4.8c0,1.9-0.4,3.5-1.1,4.7
	c-0.7,1.2-1.7,2.2-2.9,2.8C185.8,56.8,184.5,57.1,183,57.1z M182.8,52.6c0.5,0,1-0.1,1.4-0.4c0.5-0.3,0.9-0.7,1.2-1.2
	c0.3-0.6,0.5-1.3,0.5-2.3c0-1.5-0.3-2.5-0.8-3.1s-1.2-0.9-1.9-0.9c-0.5,0-1,0.1-1.5,0.4c-0.5,0.3-0.9,0.7-1.2,1.3s-0.5,1.4-0.5,2.4
	c0,1.4,0.3,2.4,0.8,3C181.4,52.3,182.1,52.6,182.8,52.6z M216,56.6v-9.3c0-0.8-0.2-1.5-0.6-1.9c-0.4-0.4-0.9-0.6-1.5-0.6
	c-0.9,0-1.6,0.4-2.2,1.1c-0.6,0.8-0.8,2-0.8,3.9h-2c0-1.9,0.2-3.5,0.5-4.7c0.3-1.3,0.8-2.2,1.4-3c0.6-0.7,1.3-1.2,2.1-1.5
	s1.6-0.5,2.5-0.5c1.4,0,2.5,0.3,3.3,0.9c0.9,0.6,1.5,1.5,1.9,2.5c0.4,1.1,0.6,2.3,0.6,3.7v9.3L216,56.6L216,56.6z M195.2,56.6V40.7
	h4.5l0.5,2.2c0.5-1,1.2-1.7,2-2.1c0.8-0.4,1.7-0.7,2.7-0.7c1.4,0,2.5,0.3,3.3,0.9c0.9,0.6,1.5,1.5,1.9,2.5c0.4,1.1,0.6,2.3,0.6,3.7
	v9.3h-5.2v-9.3c0-0.8-0.2-1.5-0.6-1.9c-0.4-0.4-0.9-0.6-1.5-0.6s-1.1,0.2-1.6,0.5s-0.9,0.9-1.2,1.6c-0.3,0.7-0.4,1.7-0.4,2.9v6.7h-5
	V56.6z M247,56.6v-9.3c0-0.8-0.2-1.5-0.6-1.9c-0.4-0.4-0.9-0.6-1.5-0.6c-0.9,0-1.6,0.4-2.2,1.1c-0.6,0.8-0.8,2-0.8,3.9h-2
	c0-1.9,0.2-3.5,0.5-4.7c0.3-1.3,0.8-2.2,1.4-3c0.6-0.7,1.3-1.2,2.1-1.5s1.6-0.5,2.5-0.5c1.4,0,2.5,0.3,3.3,0.9
	c0.9,0.6,1.5,1.5,1.9,2.5c0.4,1.1,0.6,2.3,0.6,3.7v9.3L247,56.6L247,56.6z M226.2,56.6V40.7h4.5l0.5,2.2c0.5-1,1.2-1.7,2-2.1
	c0.8-0.4,1.7-0.7,2.7-0.7c1.4,0,2.5,0.3,3.3,0.9c0.9,0.6,1.5,1.5,1.9,2.5c0.4,1.1,0.6,2.3,0.6,3.7v9.3h-5.2v-9.3
	c0-0.8-0.2-1.5-0.6-1.9c-0.4-0.4-0.9-0.6-1.5-0.6s-1.1,0.2-1.6,0.5s-0.9,0.9-1.2,1.6c-0.3,0.7-0.4,1.7-0.4,2.9v6.7h-5V56.6z
	 M263.6,57.1c-1.3,0-2.6-0.3-3.8-1c-1.2-0.7-2.1-1.7-2.9-3c-0.7-1.3-1.1-2.8-1.1-4.5c0-1.8,0.4-3.3,1.1-4.5c0.7-1.3,1.7-2.2,2.8-2.9
	s2.4-1,3.8-1c1.3,0,2.5,0.3,3.5,0.8s1.8,1.2,2.4,2.1c0.6,0.9,1,1.9,1.2,3.1c0.2,1.1,0.2,2.3-0.1,3.5H260v-2.6h6.8l-0.7,0.5
	c0-0.4,0-0.8,0-1.1c-0.1-0.4-0.2-0.7-0.3-1.1c-0.2-0.3-0.4-0.6-0.7-0.8c-0.3-0.2-0.7-0.3-1.2-0.3s-1,0.1-1.4,0.4
	c-0.4,0.3-0.7,0.6-0.9,1.1c-0.2,0.5-0.3,1.1-0.3,1.8v2c0,0.7,0.1,1.3,0.3,1.8c0.2,0.5,0.5,0.9,0.9,1.2s0.9,0.4,1.5,0.4
	c0.5,0,0.9-0.1,1.2-0.3c0.4-0.2,0.6-0.5,0.7-0.9h5.1c-0.2,1-0.6,1.9-1.2,2.7s-1.4,1.4-2.5,1.9C266.1,56.9,264.9,57.1,263.6,57.1z
	 M274.9,56.6v-16h5.2v16H274.9z M279,49.8c0-2.2,0.3-3.9,0.8-5.3s1.2-2.4,2.1-3.1c0.8-0.7,1.7-1,2.6-1c0.2,0,0.3,0,0.5,0
	s0.3,0,0.5,0.1v5.2c-0.3,0-0.5-0.1-0.8-0.1s-0.5,0-0.8,0c-0.8,0-1.4,0.1-2,0.4c-0.6,0.3-1,0.7-1.3,1.3s-0.5,1.4-0.5,2.5L279,49.8z
	 M295.1,57.1c-1.4,0-2.7-0.3-3.9-1c-1.2-0.7-2.1-1.7-2.9-3c-0.7-1.3-1.1-2.8-1.1-4.4c0-1.9,0.4-3.4,1.1-4.7s1.7-2.2,2.9-2.8
	c1.2-0.6,2.5-1,3.9-1c1.2,0,2.2,0.2,3.1,0.6c0.9,0.4,1.6,0.9,2.2,1.6c0.6,0.6,1,1.4,1.3,2.1c0.3,0.8,0.4,1.5,0.4,2.3h-5.2
	c-0.1-0.5-0.3-0.9-0.6-1.3c-0.3-0.4-0.7-0.6-1.3-0.6c-0.5,0-0.9,0.1-1.3,0.4c-0.4,0.2-0.7,0.6-1,1.2c-0.2,0.5-0.4,1.3-0.4,2.3
	c0,0.9,0.1,1.7,0.4,2.2s0.6,0.9,1,1.2c0.4,0.2,0.8,0.3,1.3,0.3c0.7,0,1.2-0.2,1.5-0.5s0.4-0.8,0.4-1.3h5.2c0,1.1-0.3,2.2-0.8,3.2
	s-1.3,1.8-2.3,2.4C298,56.8,296.7,57.1,295.1,57.1z M312.5,57.1c-1.3,0-2.6-0.3-3.8-1c-1.2-0.7-2.1-1.7-2.9-3
	c-0.7-1.3-1.1-2.8-1.1-4.5c0-1.8,0.4-3.3,1.1-4.5c0.7-1.3,1.7-2.2,2.8-2.9c1.2-0.7,2.4-1,3.8-1c1.3,0,2.5,0.3,3.5,0.8
	s1.8,1.2,2.4,2.1c0.6,0.9,1,1.9,1.2,3.1c0.2,1.1,0.2,2.3-0.1,3.5h-10.6v-2.6h6.8l-0.7,0.5c0-0.4,0-0.8,0-1.1
	c-0.1-0.4-0.2-0.7-0.3-1.1c-0.2-0.3-0.4-0.6-0.7-0.8c-0.3-0.2-0.7-0.3-1.2-0.3s-1,0.1-1.4,0.4c-0.4,0.3-0.7,0.6-0.9,1.1
	c-0.2,0.5-0.3,1.1-0.3,1.8v2c0,0.7,0.1,1.3,0.3,1.8c0.2,0.5,0.5,0.9,0.9,1.2s0.9,0.4,1.5,0.4c0.5,0,0.9-0.1,1.2-0.3
	c0.4-0.2,0.6-0.5,0.7-0.9h5.1c-0.2,1-0.6,1.9-1.2,2.7s-1.4,1.4-2.5,1.9C315,56.9,313.8,57.1,312.5,57.1z"/>
<g>
	<g>
		<defs>
			<rect id="SVGID_1_" width="90" height="90"/>
		</defs>
		<clipPath id="SVGID_2_">
			<use xlink:href="#SVGID_1_"  style="overflow:visible;"/>
		</clipPath>
		<g class="st1">
			<path class="st0" d="M90,45c0.1,24.8-20.1,45-45,45S0,69.9,0,45C0,20.2,20.1,0.1,44.9,0S89.9,20.1,90,45L90,45z M45.1,2.2
				C21.7,2.1,2.4,21.2,2.2,44.5C2,68.4,21.2,87.7,44.7,87.8C68.9,88,87.6,68.2,87.8,45.3C87.9,21.7,68.6,2.1,45.1,2.2z"/>
			<path class="st0" d="M45.1,2.2C68.6,2.1,88,21.6,87.8,45.3C87.6,68.2,68.9,88,44.7,87.8C21.1,87.7,1.9,68.4,2.2,44.5
				C2.4,21.2,21.7,2.1,45.1,2.2z M45,3.4C22.1,3.4,3.5,22,3.4,44.9C3.4,68,21.9,86.5,45,86.6c22.9,0,41.5-18.5,41.5-41.4
				C86.7,22.2,68,3.4,45,3.4z"/>
			<path class="st2" d="M45,3.4c23,0,41.7,18.8,41.6,41.8C86.5,68.1,67.9,86.6,45,86.6C21.9,86.5,3.4,68,3.4,44.9
				C3.5,22,22.1,3.4,45,3.4z M69.9,41.9c1.6-0.2,1.9-0.6,1.2-1.7c-0.4-0.7-1.2-1.4-1.9-1.6c-2.5-0.7-4.6-2.1-6.6-3.7
				c-2.7-2.2-5.4-2.3-8.4-0.5c-0.4,0.3-0.8,0.5-1.3,0.8c-1.3,0.6-2.5,1.1-3.9,0.3c-0.2-0.1-0.9,0-0.9,0.2c-0.3,1.1-1.1,0.8-1.8,0.7
				V20.9c0.6-0.1,1.1-0.1,1.7-0.2c-0.9-2.5-1.8-4.8-2.7-7.2c-0.1,0-0.2,0-0.3,0c-0.9,2.4-1.8,4.7-2.7,7.2c0.6,0.1,1,0.1,1.5,0.2
				v15.6c-0.5-0.2-1.2-0.3-1.3-0.6c-0.4-1-0.9-0.7-1.6-0.5c-0.6,0.2-1.2,0.3-1.7,0.2c-1-0.3-2.1-0.7-3-1.3c-2.6-1.7-5.8-1.8-8.2,0.2
				c-2.2,1.8-4.5,3.2-7.2,4c-0.6,0.2-1.3,0.8-1.7,1.4c-0.7,1.1-0.5,1.6,1.1,1.9c-0.5,0.6-0.9,1.3-1.4,1.7c-2,1.4-4.3,2.5-6.8,2.7
				c-1.6,0.1-3.3-0.5-5-0.8c-0.2,0-0.3-0.2-0.4-0.3c-0.3-0.1-0.6-0.2-1-0.3c-0.1,0.4-0.2,0.7-0.2,1.1c0.2,1.3,1.3,2.1,3,2.3
				c1.3,0.2,2.6,0.3,3.7,1.2c7.4,6.2,15,12.2,22.5,18.3c2.5,2,5.1,4,7.6,6c0.4,0.4,0.7,1,0.9,1.5c0.2,0.4,0.3,0.8,0.5,1.1
				c0.4-0.2,0.7-0.3,1.1-0.5c0.2-0.1,0.3-0.2,0.4-0.3c0.2,0.2,0.4,0.3,0.5,0.4c0.4,0.2,0.8,0.4,1.1,0.7c0.2-0.4,0.3-0.9,0.5-1.3
				s0.3-1,0.7-1.3c1.3-1.1,2.6-2.1,3.9-3.1c8.4-6.8,16.9-13.7,25.3-20.5c1.5-1.2,2.9-2.2,4.9-2.3c0.5,0,1.1-0.2,1.5-0.6
				c0.5-0.5,0.9-1.2,1.3-1.8c0.1-0.2,0-0.7-0.2-0.8s-0.6,0-0.9,0.1c-0.5,0.1-1,0.3-1.6,0.4c-0.5,0.1-1,0.3-1.5,0.4
				c-0.8,0.2-1.8,0.7-2.5,0.4c-2.2-0.7-4.3-1.5-6.4-2.5C71,43.5,70.6,42.7,69.9,41.9L69.9,41.9z"/>
			<path class="st0" d="M69.9,41.9c0.7,0.8,1.1,1.6,1.8,1.9c2.1,1,4.2,1.8,6.4,2.5c0.7,0.2,1.7-0.3,2.5-0.4c0.5-0.1,1-0.2,1.5-0.4
				c0.5-0.1,1-0.3,1.6-0.4c0.3-0.1,0.7-0.2,0.9-0.1c0.2,0.1,0.3,0.6,0.2,0.8c-0.4,0.7-0.8,1.3-1.3,1.8c-0.4,0.3-1,0.5-1.5,0.6
				c-2,0.1-3.4,1.1-4.9,2.3C68.7,57.4,60.2,64.2,51.8,71c-1.3,1.1-2.6,2-3.9,3.1c-0.3,0.3-0.5,0.8-0.7,1.3c-0.2,0.4-0.3,0.9-0.5,1.3
				c-0.4-0.2-0.8-0.4-1.1-0.7c-0.2-0.1-0.3-0.3-0.5-0.4c-0.2,0.1-0.3,0.3-0.4,0.3c-0.4,0.2-0.7,0.3-1.1,0.5
				c-0.1-0.4-0.3-0.8-0.5-1.1c-0.3-0.5-0.5-1.2-0.9-1.5c-2.5-2.1-5.1-4-7.6-6c-7.5-6.1-15-12.2-22.5-18.3c-1.2-1-2.4-1-3.7-1.2
				c-1.6-0.2-2.7-1.1-3-2.3c-0.1-0.3,0.1-0.7,0.2-1.1c0.3,0.1,0.7,0.1,1,0.3c0.2,0.1,0.3,0.3,0.4,0.3c1.7,0.3,3.4,0.9,5,0.8
				c2.4-0.2,4.7-1.2,6.8-2.7c0.5-0.4,0.9-1,1.4-1.7c-1.5-0.3-1.8-0.8-1.1-1.9c0.4-0.6,1-1.2,1.7-1.4c2.7-0.9,5-2.2,7.2-4
				c2.4-2,5.6-1.9,8.2-0.2c0.9,0.6,2,1,3,1.3c0.5,0.1,1.2,0,1.7-0.2c0.7-0.2,1.2-0.5,1.6,0.5c0.1,0.3,0.8,0.3,1.3,0.6V20.9
				c-0.5-0.1-1-0.1-1.5-0.2c0.9-2.4,1.8-4.8,2.7-7.2c0.1,0,0.2,0,0.3,0c0.9,2.4,1.8,4.7,2.7,7.2c-0.6,0.1-1.1,0.1-1.7,0.2v15.4
				c0.8,0,1.5,0.3,1.8-0.7c0-0.1,0.7-0.3,0.9-0.2c1.4,0.8,2.7,0.3,3.9-0.3c0.4-0.2,0.9-0.5,1.3-0.8c3-1.8,5.7-1.7,8.4,0.5
				c2,1.6,4.1,3,6.6,3.7c0.8,0.2,1.5,1,1.9,1.6C71.8,41.3,71.5,41.7,69.9,41.9L69.9,41.9z M76.6,48.7c-0.4-0.1-0.7-0.2-0.9-0.3
				c-4-0.5-7.4-2.1-10.4-4.7c-0.3-0.2-0.6-0.7-0.5-1c0.1-1.7-0.2-2.6-1.8-3.2c-2.3-0.9-4.6-1.8-7-0.5c-0.3,0.1-0.6,0.1-0.9,0.2
				c-0.5,0.2-1,0.4-1.4,0.7c-0.6,0.4-1,0.9-1.6,1.2c-1.2,0.5-1.6,0.3-1.7-1c-0.1-0.7-0.4-1.1-1.1-1c-0.9,0.1-1.9,0.2-2.9,0.3
				c0,0.4,0,0.9,0,1.3c0,8.5,0,16.9,0,25.4c0,2.1-0.3,4.3,1.3,6.2C57.1,64.4,66.8,56.6,76.6,48.7z M13.7,48.6
				c9.8,7.9,19.5,15.7,29.3,23.7c0.3-1.3,0.8-2.3,0.8-3.4c0.1-9.6,0.1-19.1,0.1-28.7c0-0.3-0.1-0.6-0.1-0.9
				c-0.9-0.1-1.6-0.1-2.4-0.2c-0.9-0.1-1.5,0.2-1.5,1.3c0.1,0.8-0.5,1.2-1.2,0.9s-1.3-0.9-2-1.3c-0.5-0.3-1.1-0.6-1.6-0.8
				c-0.3-0.1-0.7-0.1-0.9-0.2c-2.5-1.2-4.9-0.4-7.1,0.6c-1.4,0.6-1.8,1.6-1.6,3.1c0,0.3-0.1,0.7-0.4,0.9c-1.7,1.5-3.5,2.9-5.7,3.6
				C17.5,47.7,15.7,48.1,13.7,48.6L13.7,48.6z"/>
			<path class="st3" d="M76.6,48.7c-9.8,7.9-19.5,15.7-29.1,23.5c-1.6-1.8-1.3-4-1.3-6.2c0-8.5,0-16.9,0-25.4c0-0.4,0-0.8,0-1.3
				c1-0.1,2-0.2,2.9-0.3c0.7,0,1,0.3,1.1,1c0.1,1.3,0.5,1.6,1.7,1c0.6-0.3,1-0.8,1.6-1.2c0.4-0.3,0.9-0.5,1.4-0.7
				c0.3-0.1,0.7,0,0.9-0.2c2.4-1.3,4.8-0.5,7,0.5c1.5,0.6,1.9,1.5,1.8,3.2c0,0.3,0.3,0.8,0.5,1c3,2.6,6.5,4.2,10.4,4.7
				C75.9,48.4,76.1,48.5,76.6,48.7z"/>
			<path class="st3" d="M13.7,48.6c2-0.5,3.8-0.9,5.6-1.4c2.2-0.7,4.1-2,5.7-3.6c0.2-0.2,0.4-0.6,0.4-0.9c-0.1-1.5,0.3-2.5,1.6-3.1
				c2.3-1,4.6-1.8,7.1-0.6c0.3,0.1,0.6,0.1,0.9,0.2c0.6,0.2,1.1,0.5,1.6,0.8c0.7,0.4,1.3,1,2,1.3s1.2-0.1,1.2-0.9
				c-0.1-1.1,0.5-1.3,1.5-1.3c0.8,0.1,1.6,0.1,2.4,0.2c0,0.3,0.1,0.6,0.1,0.9c0,9.6,0,19.1-0.1,28.7c0,1.1-0.5,2.1-0.8,3.4
				C33.2,64.3,23.5,56.5,13.7,48.6L13.7,48.6z"/>
		</g>
	</g>
</g>
</svg>
